<svg height="542" width="720" xmlns="http://www.w3.org/2000/svg">
<rect height="542" fill="#555" width="720"></rect>
<text fill="#7f7" font-family="Courier New" font-size="12" xml:space="preserve">
<tspan x="10" y="26">4 megabytes installed</tspan>
<tspan x="10" y="42"></tspan>
<tspan x="10" y="58">node_modules</tspan>
<tspan x="10" y="74">├── UNMET PEER DEPENDENCY grunt@&gt;=0.4.0</tspan>
<tspan x="10" y="90">└─┬ grunt-svgmin@4.0.0 </tspan>
<tspan x="10" y="106">  ├─┬ chalk@1.1.3 </tspan>
<tspan x="10" y="122">  │ ├── ansi-styles@2.2.1 </tspan>
<tspan x="10" y="138">  │ ├── escape-string-regexp@1.0.5 </tspan>
<tspan x="10" y="154">  │ ├─┬ has-ansi@2.0.0 </tspan>
<tspan x="10" y="170">  │ │ └── ansi-regex@2.1.1 </tspan>
<tspan x="10" y="186">  │ ├── strip-ansi@3.0.1 </tspan>
<tspan x="10" y="202">  │ └── supports-color@2.0.0 </tspan>
<tspan x="10" y="218">  ├─┬ each-async@1.1.1 </tspan>
<tspan x="10" y="234">  │ ├── onetime@1.1.0 </tspan>
<tspan x="10" y="250">  │ └── set-immediate-shim@1.0.1 </tspan>
<tspan x="10" y="266">  ├── log-symbols@1.0.2 </tspan>
<tspan x="10" y="282">  ├── pretty-bytes@4.0.2 </tspan>
<tspan x="10" y="298">  └─┬ svgo@0.7.2 </tspan>
<tspan x="10" y="314">    ├─┬ coa@1.0.1 </tspan>
<tspan x="10" y="330">    │ └── q@1.5.0 </tspan>
<tspan x="10" y="346">    ├── colors@1.1.2 </tspan>
<tspan x="10" y="362">    ├─┬ csso@2.3.2 </tspan>
<tspan x="10" y="378">    │ ├── clap@1.1.3 </tspan>
<tspan x="10" y="394">    │ └── source-map@0.5.6 </tspan>
<tspan x="10" y="410">    ├─┬ js-yaml@3.7.0 </tspan>
<tspan x="10" y="426">    │ ├─┬ argparse@1.0.9 </tspan>
<tspan x="10" y="442">    │ │ └── sprintf-js@1.0.3 </tspan>
<tspan x="10" y="458">    │ └── esprima@2.7.3 </tspan>
<tspan x="10" y="474">    ├─┬ mkdirp@0.5.1 </tspan>
<tspan x="10" y="490">    │ └── minimist@0.0.8 </tspan>
<tspan x="10" y="506">    ├── sax@1.2.2 </tspan>
<tspan x="10" y="522">    └── whet.extend@0.9.9</tspan>
</text>
</svg>
